P3  # Plain portable pixmap
60 30 255  # Width, Height, Max color component value

017 001 052  019 046 056  012 063 069  001 072 082
016 079 108  031 095 135  029 095 166  034 096 193
108 070 215  151 051 213  188 039 215  196 040 197
208 031 179  235 028 169  255 016 166  246 020 183
253 020 194  255 028 197  247 013 184  240 007 178
245 004 186  255 008 196  242 032 212  238 066 221
243 074 241  255 088 255  251 113 246  253 142 243
247 174 247  237 198 255  244 217 240  242 219 241
233 228 233  236 228 229  238 238 219  225 248 198
207 255 179  202 242 156  202 226 123  189 223 095
185 211 071  189 179 056  195 156 036  191 137 021
193 115 000  141 081 000  100 077 002  068 069 000
040 093 005  019 107 004  014 106 006  008 113 000
012 095 003  011 080 004  008 062 000  000 042 000
003 037 007  015 034 014  017 018 032  017 001 052

017 001 052  019 046 056  012 063 069  001 072 082
016 079 108  031 095 135  029 095 166  034 096 193
108 070 215  151 051 213  188 039 215  196 040 197
208 031 179  235 028 169  255 016 166  246 020 183
253 020 194  255 028 197  247 013 184  240 007 178
245 004 186  255 008 196  242 032 212  238 066 221
243 074 241  255 088 255  251 113 246  253 142 243
247 174 247  237 198 255  244 217 240  242 219 241
233 228 233  236 228 229  238 238 219  225 248 198
207 255 179  202 242 156  202 226 123  189 223 095
185 211 071  189 179 056  195 156 036  191 137 021
193 115 000  141 081 000  100 077 002  068 069 000
040 093 005  019 107 004  014 106 006  008 113 000
012 095 003  011 080 004  008 062 000  000 042 000
003 037 007  015 034 014  017 018 032  017 001 052

017 001 052  019 046 056  012 063 069  001 072 082
016 079 108  031 095 135  029 095 166  034 096 193
108 070 215  151 051 213  188 039 215  196 040 197
208 031 179  235 028 169  255 016 166  246 020 183
253 020 194  255 028 197  247 013 184  240 007 178
245 004 186  255 008 196  242 032 212  238 066 221
243 074 241  255 088 255  251 113 246  253 142 243
247 174 247  237 198 255  244 217 240  242 219 241
233 228 233  236 228 229  238 238 219  225 248 198
207 255 179  202 242 156  202 226 123  189 223 095
185 211 071  189 179 056  195 156 036  191 137 021
193 115 000  141 081 000  100 077 002  068 069 000
040 093 005  019 107 004  014 106 006  008 113 000
012 095 003  011 080 004  008 062 000  000 042 000
003 037 007  015 034 014  017 018 032  017 001 052

017 001 052  019 046 056  012 063 069  001 072 082
016 079 108  031 095 135  029 095 166  034 096 193
108 070 215  151 051 213  188 039 215  196 040 197
208 031 179  235 028 169  255 016 166  246 020 183
253 020 194  255 028 197  247 013 184  240 007 178
245 004 186  255 008 196  242 032 212  238 066 221
243 074 241  255 088 255  251 113 246  253 142 243
247 174 247  237 198 255  244 217 240  242 219 241
233 228 233  236 228 229  238 238 219  225 248 198
207 255 179  202 242 156  202 226 123  189 223 095
185 211 071  189 179 056  195 156 036  191 137 021
193 115 000  141 081 000  100 077 002  068 069 000
040 093 005  019 107 004  014 106 006  008 113 000
012 095 003  011 080 004  008 062 000  000 042 000
003 037 007  015 034 014  017 018 032  017 001 052

017 001 052  019 046 056  012 063 069  001 072 082
016 079 108  031 095 135  029 095 166  034 096 193
108 070 215  151 051 213  188 039 215  196 040 197
208 031 179  235 028 169  255 016 166  246 020 183
253 020 194  255 028 197  247 013 184  240 007 178
245 004 186  255 008 196  242 032 212  238 066 221
243 074 241  255 088 255  251 113 246  253 142 243
247 174 247  237 198 255  244 217 240  242 219 241
233 228 233  236 228 229  238 238 219  225 248 198
207 255 179  202 242 156  202 226 123  189 223 095
185 211 071  189 179 056  195 156 036  191 137 021
193 115 000  141 081 000  100 077 002  068 069 000
040 093 005  019 107 004  014 106 006  008 113 000
012 095 003  011 080 004  008 062 000  000 042 000
003 037 007  015 034 014  017 018 032  017 001 052

017 001 052  019 046 056  012 063 069  001 072 082
016 079 108  031 095 135  029 095 166  034 096 193
108 070 215  151 051 213  188 039 215  196 040 197
208 031 179  235 028 169  255 016 166  246 020 183
253 020 194  255 028 197  247 013 184  240 007 178
245 004 186  255 008 196  242 032 212  238 066 221
243 074 241  255 088 255  251 113 246  253 142 243
247 174 247  237 198 255  244 217 240  242 219 241
233 228 233  236 228 229  238 238 219  225 248 198
207 255 179  202 242 156  202 226 123  189 223 095
185 211 071  189 179 056  195 156 036  191 137 021
193 115 000  141 081 000  100 077 002  068 069 000
040 093 005  019 107 004  014 106 006  008 113 000
012 095 003  011 080 004  008 062 000  000 042 000
003 037 007  015 034 014  017 018 032  017 001 052

017 001 052  019 046 056  012 063 069  001 072 082
016 079 108  031 095 135  029 095 166  034 096 193
108 070 215  151 051 213  188 039 215  196 040 197
208 031 179  235 028 169  255 016 166  246 020 183
253 020 194  255 028 197  247 013 184  240 007 178
245 004 186  255 008 196  242 032 212  238 066 221
243 074 241  255 088 255  251 113 246  253 142 243
247 174 247  237 198 255  244 217 240  242 219 241
233 228 233  236 228 229  238 238 219  225 248 198
207 255 179  202 242 156  202 226 123  189 223 095
185 211 071  189 179 056  195 156 036  191 137 021
193 115 000  141 081 000  100 077 002  068 069 000
040 093 005  019 107 004  014 106 006  008 113 000
012 095 003  011 080 004  008 062 000  000 042 000
003 037 007  015 034 014  017 018 032  017 001 052

017 001 052  019 046 056  012 063 069  001 072 082
016 079 108  031 095 135  029 095 166  034 096 193
108 070 215  151 051 213  188 039 215  196 040 197
208 031 179  235 028 169  255 016 166  246 020 183
253 020 194  255 028 197  247 013 184  240 007 178
245 004 186  255 008 196  242 032 212  238 066 221
243 074 241  255 088 255  251 113 246  253 142 243
247 174 247  237 198 255  244 217 240  242 219 241
233 228 233  236 228 229  238 238 219  225 248 198
207 255 179  202 242 156  202 226 123  189 223 095
185 211 071  189 179 056  195 156 036  191 137 021
193 115 000  141 081 000  100 077 002  068 069 000
040 093 005  019 107 004  014 106 006  008 113 000
012 095 003  011 080 004  008 062 000  000 042 000
003 037 007  015 034 014  017 018 032  017 001 052

017 001 052  019 046 056  012 063 069  001 072 082
016 079 108  031 095 135  029 095 166  034 096 193
108 070 215  151 051 213  188 039 215  196 040 197
208 031 179  235 028 169  255 016 166  246 020 183
253 020 194  255 028 197  247 013 184  240 007 178
245 004 186  255 008 196  242 032 212  238 066 221
243 074 241  255 088 255  251 113 246  253 142 243
247 174 247  237 198 255  244 217 240  242 219 241
233 228 233  236 228 229  238 238 219  225 248 198
207 255 179  202 242 156  202 226 123  189 223 095
185 211 071  189 179 056  195 156 036  191 137 021
193 115 000  141 081 000  100 077 002  068 069 000
040 093 005  019 107 004  014 106 006  008 113 000
012 095 003  011 080 004  008 062 000  000 042 000
003 037 007  015 034 014  017 018 032  017 001 052

017 001 052  019 046 056  012 063 069  001 072 082
016 079 108  031 095 135  029 095 166  034 096 193
108 070 215  151 051 213  188 039 215  196 040 197
208 031 179  235 028 169  255 016 166  246 020 183
253 020 194  255 028 197  247 013 184  240 007 178
245 004 186  255 008 196  242 032 212  238 066 221
243 074 241  255 088 255  251 113 246  253 142 243
247 174 247  237 198 255  244 217 240  242 219 241
233 228 233  236 228 229  238 238 219  225 248 198
207 255 179  202 242 156  202 226 123  189 223 095
185 211 071  189 179 056  195 156 036  191 137 021
193 115 000  141 081 000  100 077 002  068 069 000
040 093 005  019 107 004  014 106 006  008 113 000
012 095 003  011 080 004  008 062 000  000 042 000
003 037 007  015 034 014  017 018 032  017 001 052

017 001 052  019 046 056  012 063 069  001 072 082
016 079 108  031 095 135  029 095 166  034 096 193
108 070 215  151 051 213  188 039 215  196 040 197
208 031 179  235 028 169  255 016 166  246 020 183
253 020 194  255 028 197  247 013 184  240 007 178
245 004 186  255 008 196  242 032 212  238 066 221
243 074 241  255 088 255  251 113 246  253 142 243
247 174 247  237 198 255  244 217 240  242 219 241
233 228 233  236 228 229  238 238 219  225 248 198
207 255 179  202 242 156  202 226 123  189 223 095
185 211 071  189 179 056  195 156 036  191 137 021
193 115 000  141 081 000  100 077 002  068 069 000
040 093 005  019 107 004  014 106 006  008 113 000
012 095 003  011 080 004  008 062 000  000 042 000
003 037 007  015 034 014  017 018 032  017 001 052

017 001 052  019 046 056  012 063 069  001 072 082
016 079 108  031 095 135  029 095 166  034 096 193
108 070 215  151 051 213  188 039 215  196 040 197
208 031 179  235 028 169  255 016 166  246 020 183
253 020 194  255 028 197  247 013 184  240 007 178
245 004 186  255 008 196  242 032 212  238 066 221
243 074 241  255 088 255  251 113 246  253 142 243
247 174 247  237 198 255  244 217 240  242 219 241
233 228 233  236 228 229  238 238 219  225 248 198
207 255 179  202 242 156  202 226 123  189 223 095
185 211 071  189 179 056  195 156 036  191 137 021
193 115 000  141 081 000  100 077 002  068 069 000
040 093 005  019 107 004  014 106 006  008 113 000
012 095 003  011 080 004  008 062 000  000 042 000
003 037 007  015 034 014  017 018 032  017 001 052

017 001 052  019 046 056  012 063 069  001 072 082
016 079 108  031 095 135  029 095 166  034 096 193
108 070 215  151 051 213  188 039 215  196 040 197
208 031 179  235 028 169  255 016 166  246 020 183
253 020 194  255 028 197  247 013 184  240 007 178
245 004 186  255 008 196  242 032 212  238 066 221
243 074 241  255 088 255  251 113 246  253 142 243
247 174 247  237 198 255  244 217 240  242 219 241
233 228 233  236 228 229  238 238 219  225 248 198
207 255 179  202 242 156  202 226 123  189 223 095
185 211 071  189 179 056  195 156 036  191 137 021
193 115 000  141 081 000  100 077 002  068 069 000
040 093 005  019 107 004  014 106 006  008 113 000
012 095 003  011 080 004  008 062 000  000 042 000
003 037 007  015 034 014  017 018 032  017 001 052

017 001 052  019 046 056  012 063 069  001 072 082
016 079 108  031 095 135  029 095 166  034 096 193
108 070 215  151 051 213  188 039 215  196 040 197
208 031 179  235 028 169  255 016 166  246 020 183
253 020 194  255 028 197  247 013 184  240 007 178
245 004 186  255 008 196  242 032 212  238 066 221
243 074 241  255 088 255  251 113 246  253 142 243
247 174 247  237 198 255  244 217 240  242 219 241
233 228 233  236 228 229  238 238 219  225 248 198
207 255 179  202 242 156  202 226 123  189 223 095
185 211 071  189 179 056  195 156 036  191 137 021
193 115 000  141 081 000  100 077 002  068 069 000
040 093 005  019 107 004  014 106 006  008 113 000
012 095 003  011 080 004  008 062 000  000 042 000
003 037 007  015 034 014  017 018 032  017 001 052

017 001 052  019 046 056  012 063 069  001 072 082
016 079 108  031 095 135  029 095 166  034 096 193
108 070 215  151 051 213  188 039 215  196 040 197
208 031 179  235 028 169  255 016 166  246 020 183
253 020 194  255 028 197  247 013 184  240 007 178
245 004 186  255 008 196  242 032 212  238 066 221
243 074 241  255 088 255  251 113 246  253 142 243
247 174 247  237 198 255  244 217 240  242 219 241
233 228 233  236 228 229  238 238 219  225 248 198
207 255 179  202 242 156  202 226 123  189 223 095
185 211 071  189 179 056  195 156 036  191 137 021
193 115 000  141 081 000  100 077 002  068 069 000
040 093 005  019 107 004  014 106 006  008 113 000
012 095 003  011 080 004  008 062 000  000 042 000
003 037 007  015 034 014  017 018 032  017 001 052

017 001 052  019 046 056  012 063 069  001 072 082
016 079 108  031 095 135  029 095 166  034 096 193
108 070 215  151 051 213  188 039 215  196 040 197
208 031 179  235 028 169  255 016 166  246 020 183
253 020 194  255 028 197  247 013 184  240 007 178
245 004 186  255 008 196  242 032 212  238 066 221
243 074 241  255 088 255  251 113 246  253 142 243
247 174 247  237 198 255  244 217 240  242 219 241
233 228 233  236 228 229  238 238 219  225 248 198
207 255 179  202 242 156  202 226 123  189 223 095
185 211 071  189 179 056  195 156 036  191 137 021
193 115 000  141 081 000  100 077 002  068 069 000
040 093 005  019 107 004  014 106 006  008 113 000
012 095 003  011 080 004  008 062 000  000 042 000
003 037 007  015 034 014  017 018 032  017 001 052

017 001 052  019 046 056  012 063 069  001 072 082
016 079 108  031 095 135  029 095 166  034 096 193
108 070 215  151 051 213  188 039 215  196 040 197
208 031 179  235 028 169  255 016 166  246 020 183
253 020 194  255 028 197  247 013 184  240 007 178
245 004 186  255 008 196  242 032 212  238 066 221
243 074 241  255 088 255  251 113 246  253 142 243
247 174 247  237 198 255  244 217 240  242 219 241
233 228 233  236 228 229  238 238 219  225 248 198
207 255 179  202 242 156  202 226 123  189 223 095
185 211 071  189 179 056  195 156 036  191 137 021
193 115 000  141 081 000  100 077 002  068 069 000
040 093 005  019 107 004  014 106 006  008 113 000
012 095 003  011 080 004  008 062 000  000 042 000
003 037 007  015 034 014  017 018 032  017 001 052

017 001 052  019 046 056  012 063 069  001 072 082
016 079 108  031 095 135  029 095 166  034 096 193
108 070 215  151 051 213  188 039 215  196 040 197
208 031 179  235 028 169  255 016 166  246 020 183
253 020 194  255 028 197  247 013 184  240 007 178
245 004 186  255 008 196  242 032 212  238 066 221
243 074 241  255 088 255  251 113 246  253 142 243
247 174 247  237 198 255  244 217 240  242 219 241
233 228 233  236 228 229  238 238 219  225 248 198
207 255 179  202 242 156  202 226 123  189 223 095
185 211 071  189 179 056  195 156 036  191 137 021
193 115 000  141 081 000  100 077 002  068 069 000
040 093 005  019 107 004  014 106 006  008 113 000
012 095 003  011 080 004  008 062 000  000 042 000
003 037 007  015 034 014  017 018 032  017 001 052

017 001 052  019 046 056  012 063 069  001 072 082
016 079 108  031 095 135  029 095 166  034 096 193
108 070 215  151 051 213  188 039 215  196 040 197
208 031 179  235 028 169  255 016 166  246 020 183
253 020 194  255 028 197  247 013 184  240 007 178
245 004 186  255 008 196  242 032 212  238 066 221
243 074 241  255 088 255  251 113 246  253 142 243
247 174 247  237 198 255  244 217 240  242 219 241
233 228 233  236 228 229  238 238 219  225 248 198
207 255 179  202 242 156  202 226 123  189 223 095
185 211 071  189 179 056  195 156 036  191 137 021
193 115 000  141 081 000  100 077 002  068 069 000
040 093 005  019 107 004  014 106 006  008 113 000
012 095 003  011 080 004  008 062 000  000 042 000
003 037 007  015 034 014  017 018 032  017 001 052

017 001 052  019 046 056  012 063 069  001 072 082
016 079 108  031 095 135  029 095 166  034 096 193
108 070 215  151 051 213  188 039 215  196 040 197
208 031 179  235 028 169  255 016 166  246 020 183
253 020 194  255 028 197  247 013 184  240 007 178
245 004 186  255 008 196  242 032 212  238 066 221
243 074 241  255 088 255  251 113 246  253 142 243
247 174 247  237 198 255  244 217 240  242 219 241
233 228 233  236 228 229  238 238 219  225 248 198
207 255 179  202 242 156  202 226 123  189 223 095
185 211 071  189 179 056  195 156 036  191 137 021
193 115 000  141 081 000  100 077 002  068 069 000
040 093 005  019 107 004  014 106 006  008 113 000
012 095 003  011 080 004  008 062 000  000 042 000
003 037 007  015 034 014  017 018 032  017 001 052

017 001 052  019 046 056  012 063 069  001 072 082
016 079 108  031 095 135  029 095 166  034 096 193
108 070 215  151 051 213  188 039 215  196 040 197
208 031 179  235 028 169  255 016 166  246 020 183
253 020 194  255 028 197  247 013 184  240 007 178
245 004 186  255 008 196  242 032 212  238 066 221
243 074 241  255 088 255  251 113 246  253 142 243
247 174 247  237 198 255  244 217 240  242 219 241
233 228 233  236 228 229  238 238 219  225 248 198
207 255 179  202 242 156  202 226 123  189 223 095
185 211 071  189 179 056  195 156 036  191 137 021
193 115 000  141 081 000  100 077 002  068 069 000
040 093 005  019 107 004  014 106 006  008 113 000
012 095 003  011 080 004  008 062 000  000 042 000
003 037 007  015 034 014  017 018 032  017 001 052

017 001 052  019 046 056  012 063 069  001 072 082
016 079 108  031 095 135  029 095 166  034 096 193
108 070 215  151 051 213  188 039 215  196 040 197
208 031 179  235 028 169  255 016 166  246 020 183
253 020 194  255 028 197  247 013 184  240 007 178
245 004 186  255 008 196  242 032 212  238 066 221
243 074 241  255 088 255  251 113 246  253 142 243
247 174 247  237 198 255  244 217 240  242 219 241
233 228 233  236 228 229  238 238 219  225 248 198
207 255 179  202 242 156  202 226 123  189 223 095
185 211 071  189 179 056  195 156 036  191 137 021
193 115 000  141 081 000  100 077 002  068 069 000
040 093 005  019 107 004  014 106 006  008 113 000
012 095 003  011 080 004  008 062 000  000 042 000
003 037 007  015 034 014  017 018 032  017 001 052

017 001 052  019 046 056  012 063 069  001 072 082
016 079 108  031 095 135  029 095 166  034 096 193
108 070 215  151 051 213  188 039 215  196 040 197
208 031 179  235 028 169  255 016 166  246 020 183
253 020 194  255 028 197  247 013 184  240 007 178
245 004 186  255 008 196  242 032 212  238 066 221
243 074 241  255 088 255  251 113 246  253 142 243
247 174 247  237 198 255  244 217 240  242 219 241
233 228 233  236 228 229  238 238 219  225 248 198
207 255 179  202 242 156  202 226 123  189 223 095
185 211 071  189 179 056  195 156 036  191 137 021
193 115 000  141 081 000  100 077 002  068 069 000
040 093 005  019 107 004  014 106 006  008 113 000
012 095 003  011 080 004  008 062 000  000 042 000
003 037 007  015 034 014  017 018 032  017 001 052

017 001 052  019 046 056  012 063 069  001 072 082
016 079 108  031 095 135  029 095 166  034 096 193
108 070 215  151 051 213  188 039 215  196 040 197
208 031 179  235 028 169  255 016 166  246 020 183
253 020 194  255 028 197  247 013 184  240 007 178
245 004 186  255 008 196  242 032 212  238 066 221
243 074 241  255 088 255  251 113 246  253 142 243
247 174 247  237 198 255  244 217 240  242 219 241
233 228 233  236 228 229  238 238 219  225 248 198
207 255 179  202 242 156  202 226 123  189 223 095
185 211 071  189 179 056  195 156 036  191 137 021
193 115 000  141 081 000  100 077 002  068 069 000
040 093 005  019 107 004  014 106 006  008 113 000
012 095 003  011 080 004  008 062 000  000 042 000
003 037 007  015 034 014  017 018 032  017 001 052

017 001 052  019 046 056  012 063 069  001 072 082
016 079 108  031 095 135  029 095 166  034 096 193
108 070 215  151 051 213  188 039 215  196 040 197
208 031 179  235 028 169  255 016 166  246 020 183
253 020 194  255 028 197  247 013 184  240 007 178
245 004 186  255 008 196  242 032 212  238 066 221
243 074 241  255 088 255  251 113 246  253 142 243
247 174 247  237 198 255  244 217 240  242 219 241
233 228 233  236 228 229  238 238 219  225 248 198
207 255 179  202 242 156  202 226 123  189 223 095
185 211 071  189 179 056  195 156 036  191 137 021
193 115 000  141 081 000  100 077 002  068 069 000
040 093 005  019 107 004  014 106 006  008 113 000
012 095 003  011 080 004  008 062 000  000 042 000
003 037 007  015 034 014  017 018 032  017 001 052

017 001 052  019 046 056  012 063 069  001 072 082
016 079 108  031 095 135  029 095 166  034 096 193
108 070 215  151 051 213  188 039 215  196 040 197
208 031 179  235 028 169  255 016 166  246 020 183
253 020 194  255 028 197  247 013 184  240 007 178
245 004 186  255 008 196  242 032 212  238 066 221
243 074 241  255 088 255  251 113 246  253 142 243
247 174 247  237 198 255  244 217 240  242 219 241
233 228 233  236 228 229  238 238 219  225 248 198
207 255 179  202 242 156  202 226 123  189 223 095
185 211 071  189 179 056  195 156 036  191 137 021
193 115 000  141 081 000  100 077 002  068 069 000
040 093 005  019 107 004  014 106 006  008 113 000
012 095 003  011 080 004  008 062 000  000 042 000
003 037 007  015 034 014  017 018 032  017 001 052

017 001 052  019 046 056  012 063 069  001 072 082
016 079 108  031 095 135  029 095 166  034 096 193
108 070 215  151 051 213  188 039 215  196 040 197
208 031 179  235 028 169  255 016 166  246 020 183
253 020 194  255 028 197  247 013 184  240 007 178
245 004 186  255 008 196  242 032 212  238 066 221
243 074 241  255 088 255  251 113 246  253 142 243
247 174 247  237 198 255  244 217 240  242 219 241
233 228 233  236 228 229  238 238 219  225 248 198
207 255 179  202 242 156  202 226 123  189 223 095
185 211 071  189 179 056  195 156 036  191 137 021
193 115 000  141 081 000  100 077 002  068 069 000
040 093 005  019 107 004  014 106 006  008 113 000
012 095 003  011 080 004  008 062 000  000 042 000
003 037 007  015 034 014  017 018 032  017 001 052

017 001 052  019 046 056  012 063 069  001 072 082
016 079 108  031 095 135  029 095 166  034 096 193
108 070 215  151 051 213  188 039 215  196 040 197
208 031 179  235 028 169  255 016 166  246 020 183
253 020 194  255 028 197  247 013 184  240 007 178
245 004 186  255 008 196  242 032 212  238 066 221
243 074 241  255 088 255  251 113 246  253 142 243
247 174 247  237 198 255  244 217 240  242 219 241
233 228 233  236 228 229  238 238 219  225 248 198
207 255 179  202 242 156  202 226 123  189 223 095
185 211 071  189 179 056  195 156 036  191 137 021
193 115 000  141 081 000  100 077 002  068 069 000
040 093 005  019 107 004  014 106 006  008 113 000
012 095 003  011 080 004  008 062 000  000 042 000
003 037 007  015 034 014  017 018 032  017 001 052

017 001 052  019 046 056  012 063 069  001 072 082
016 079 108  031 095 135  029 095 166  034 096 193
108 070 215  151 051 213  188 039 215  196 040 197
208 031 179  235 028 169  255 016 166  246 020 183
253 020 194  255 028 197  247 013 184  240 007 178
245 004 186  255 008 196  242 032 212  238 066 221
243 074 241  255 088 255  251 113 246  253 142 243
247 174 247  237 198 255  244 217 240  242 219 241
233 228 233  236 228 229  238 238 219  225 248 198
207 255 179  202 242 156  202 226 123  189 223 095
185 211 071  189 179 056  195 156 036  191 137 021
193 115 000  141 081 000  100 077 002  068 069 000
040 093 005  019 107 004  014 106 006  008 113 000
012 095 003  011 080 004  008 062 000  000 042 000
003 037 007  015 034 014  017 018 032  017 001 052

017 001 052  019 046 056  012 063 069  001 072 082
016 079 108  031 095 135  029 095 166  034 096 193
108 070 215  151 051 213  188 039 215  196 040 197
208 031 179  235 028 169  255 016 166  246 020 183
253 020 194  255 028 197  247 013 184  240 007 178
245 004 186  255 008 196  242 032 212  238 066 221
243 074 241  255 088 255  251 113 246  253 142 243
247 174 247  237 198 255  244 217 240  242 219 241
233 228 233  236 228 229  238 238 219  225 248 198
207 255 179  202 242 156  202 226 123  189 223 095
185 211 071  189 179 056  195 156 036  191 137 021
193 115 000  141 081 000  100 077 002  068 069 000
040 093 005  019 107 004  014 106 006  008 113 000
012 095 003  011 080 004  008 062 000  000 042 000
003 037 007  015 034 014  017 018 032  017 001 052

