P3  # Plain portable pixmap
160 15 255  # Width, Height, Max color component value

167 154 123  169 158 117  171 162 112  173 166 106
175 169 100  176 177 094  177 185 088  180 192 082
182 195 079  184 199 076  184 204 079  185 210 082
183 216 083  182 220 084  182 224 084  185 231 084
189 238 083  194 246 082  197 250 081  199 255 081
195 254 080  190 253 079  185 249 078  183 248 078
180 247 079  181 248 080  182 248 080  181 248 082
180 249 083  180 250 084  178 249 070  176 248 057
176 249 043  175 248 037  174 248 031  174 251 024
173 253 017  172 254 008  172 255 004  171 255 000
170 243 007  169 231 015  167 219 020  167 212 023
167 206 027  170 199 030  173 191 034  177 184 036
180 180 038  182 176 039  180 166 033  178 156 026
175 147 021  173 142 019  172 137 017  167 133 011
162 128 006  155 122 002  152 119 001  149 115 000
144 118 002  138 121 005  134 123 007  132 125 008
130 127 009  124 135 006  118 143 003  113 151 002
111 154 001  108 158 000  108 169 000  107 180 000
105 193 000  104 199 000  103 205 000  100 216 000
097 228 000  092 241 000  090 248 000  088 255 000
096 254 000  103 254 000  108 254 000  111 254 000
113 255 000  117 254 000  120 255 001  124 254 001
127 255 000  129 255 000  144 250 001  160 246 003
175 241 007  183 238 008  190 236 010  204 234 007
218 232 004  232 228 002  239 227 001  246 225 000
244 223 007  242 221 015  239 219 022  238 217 025
237 215 029  234 217 033  232 218 036  227 219 038
225 220 039  223 220 040  226 208 034  229 196 028
233 183 022  236 177 019  238 170 017  243 158 012
248 147 008  251 135 004  253 130 002  255 125 000
253 125 014  252 126 029  253 126 043  253 126 050
253 126 057  254 121 074  255 115 090  255 112 105
255 110 112  255 108 119  253 117 127  252 125 135
253 134 146  253 138 151  253 143 155  254 152 159
255 161 163  255 172 167  255 177 168  255 182 170
247 178 167  239 173 165  232 167 161  228 164 159
224 160 158  211 156 156  198 152 153  184 147 150
177 144 148  170 141 146  173 141 141  176 141 137
177 142 132  177 142 130  177 143 127  176 145 125
174 147 124  170 150 123  169 152 123  167 154 123

167 154 123  169 158 117  171 162 112  173 166 106
175 169 100  176 177 094  177 185 088  180 192 082
182 195 079  184 199 076  184 204 079  185 210 082
183 216 083  182 220 084  182 224 084  185 231 084
189 238 083  194 246 082  197 250 081  199 255 081
195 254 080  190 253 079  185 249 078  183 248 078
180 247 079  181 248 080  182 248 080  181 248 082
180 249 083  180 250 084  178 249 070  176 248 057
176 249 043  175 248 037  174 248 031  174 251 024
173 253 017  172 254 008  172 255 004  171 255 000
170 243 007  169 231 015  167 219 020  167 212 023
167 206 027  170 199 030  173 191 034  177 184 036
180 180 038  182 176 039  180 166 033  178 156 026
175 147 021  173 142 019  172 137 017  167 133 011
162 128 006  155 122 002  152 119 001  149 115 000
144 118 002  138 121 005  134 123 007  132 125 008
130 127 009  124 135 006  118 143 003  113 151 002
111 154 001  108 158 000  108 169 000  107 180 000
105 193 000  104 199 000  103 205 000  100 216 000
097 228 000  092 241 000  090 248 000  088 255 000
096 254 000  103 254 000  108 254 000  111 254 000
113 255 000  117 254 000  120 255 001  124 254 001
127 255 000  129 255 000  144 250 001  160 246 003
175 241 007  183 238 008  190 236 010  204 234 007
218 232 004  232 228 002  239 227 001  246 225 000
244 223 007  242 221 015  239 219 022  238 217 025
237 215 029  234 217 033  232 218 036  227 219 038
225 220 039  223 220 040  226 208 034  229 196 028
233 183 022  236 177 019  238 170 017  243 158 012
248 147 008  251 135 004  253 130 002  255 125 000
253 125 014  252 126 029  253 126 043  253 126 050
253 126 057  254 121 074  255 115 090  255 112 105
255 110 112  255 108 119  253 117 127  252 125 135
253 134 146  253 138 151  253 143 155  254 152 159
255 161 163  255 172 167  255 177 168  255 182 170
247 178 167  239 173 165  232 167 161  228 164 159
224 160 158  211 156 156  198 152 153  184 147 150
177 144 148  170 141 146  173 141 141  176 141 137
177 142 132  177 142 130  177 143 127  176 145 125
174 147 124  170 150 123  169 152 123  167 154 123

167 154 123  169 158 117  171 162 112  173 166 106
175 169 100  176 177 094  177 185 088  180 192 082
182 195 079  184 199 076  184 204 079  185 210 082
183 216 083  182 220 084  182 224 084  185 231 084
189 238 083  194 246 082  197 250 081  199 255 081
195 254 080  190 253 079  185 249 078  183 248 078
180 247 079  181 248 080  182 248 080  181 248 082
180 249 083  180 250 084  178 249 070  176 248 057
176 249 043  175 248 037  174 248 031  174 251 024
173 253 017  172 254 008  172 255 004  171 255 000
170 243 007  169 231 015  167 219 020  167 212 023
167 206 027  170 199 030  173 191 034  177 184 036
180 180 038  182 176 039  180 166 033  178 156 026
175 147 021  173 142 019  172 137 017  167 133 011
162 128 006  155 122 002  152 119 001  149 115 000
144 118 002  138 121 005  134 123 007  132 125 008
130 127 009  124 135 006  118 143 003  113 151 002
111 154 001  108 158 000  108 169 000  107 180 000
105 193 000  104 199 000  103 205 000  100 216 000
097 228 000  092 241 000  090 248 000  088 255 000
096 254 000  103 254 000  108 254 000  111 254 000
113 255 000  117 254 000  120 255 001  124 254 001
127 255 000  129 255 000  144 250 001  160 246 003
175 241 007  183 238 008  190 236 010  204 234 007
218 232 004  232 228 002  239 227 001  246 225 000
244 223 007  242 221 015  239 219 022  238 217 025
237 215 029  234 217 033  232 218 036  227 219 038
225 220 039  223 220 040  226 208 034  229 196 028
233 183 022  236 177 019  238 170 017  243 158 012
248 147 008  251 135 004  253 130 002  255 125 000
253 125 014  252 126 029  253 126 043  253 126 050
253 126 057  254 121 074  255 115 090  255 112 105
255 110 112  255 108 119  253 117 127  252 125 135
253 134 146  253 138 151  253 143 155  254 152 159
255 161 163  255 172 167  255 177 168  255 182 170
247 178 167  239 173 165  232 167 161  228 164 159
224 160 158  211 156 156  198 152 153  184 147 150
177 144 148  170 141 146  173 141 141  176 141 137
177 142 132  177 142 130  177 143 127  176 145 125
174 147 124  170 150 123  169 152 123  167 154 123

167 154 123  169 158 117  171 162 112  173 166 106
175 169 100  176 177 094  177 185 088  180 192 082
182 195 079  184 199 076  184 204 079  185 210 082
183 216 083  182 220 084  182 224 084  185 231 084
189 238 083  194 246 082  197 250 081  199 255 081
195 254 080  190 253 079  185 249 078  183 248 078
180 247 079  181 248 080  182 248 080  181 248 082
180 249 083  180 250 084  178 249 070  176 248 057
176 249 043  175 248 037  174 248 031  174 251 024
173 253 017  172 254 008  172 255 004  171 255 000
170 243 007  169 231 015  167 219 020  167 212 023
167 206 027  170 199 030  173 191 034  177 184 036
180 180 038  182 176 039  180 166 033  178 156 026
175 147 021  173 142 019  172 137 017  167 133 011
162 128 006  155 122 002  152 119 001  149 115 000
144 118 002  138 121 005  134 123 007  132 125 008
130 127 009  124 135 006  118 143 003  113 151 002
111 154 001  108 158 000  108 169 000  107 180 000
105 193 000  104 199 000  103 205 000  100 216 000
097 228 000  092 241 000  090 248 000  088 255 000
096 254 000  103 254 000  108 254 000  111 254 000
113 255 000  117 254 000  120 255 001  124 254 001
127 255 000  129 255 000  144 250 001  160 246 003
175 241 007  183 238 008  190 236 010  204 234 007
218 232 004  232 228 002  239 227 001  246 225 000
244 223 007  242 221 015  239 219 022  238 217 025
237 215 029  234 217 033  232 218 036  227 219 038
225 220 039  223 220 040  226 208 034  229 196 028
233 183 022  236 177 019  238 170 017  243 158 012
248 147 008  251 135 004  253 130 002  255 125 000
253 125 014  252 126 029  253 126 043  253 126 050
253 126 057  254 121 074  255 115 090  255 112 105
255 110 112  255 108 119  253 117 127  252 125 135
253 134 146  253 138 151  253 143 155  254 152 159
255 161 163  255 172 167  255 177 168  255 182 170
247 178 167  239 173 165  232 167 161  228 164 159
224 160 158  211 156 156  198 152 153  184 147 150
177 144 148  170 141 146  173 141 141  176 141 137
177 142 132  177 142 130  177 143 127  176 145 125
174 147 124  170 150 123  169 152 123  167 154 123

167 154 123  169 158 117  171 162 112  173 166 106
175 169 100  176 177 094  177 185 088  180 192 082
182 195 079  184 199 076  184 204 079  185 210 082
183 216 083  182 220 084  182 224 084  185 231 084
189 238 083  194 246 082  197 250 081  199 255 081
195 254 080  190 253 079  185 249 078  183 248 078
180 247 079  181 248 080  182 248 080  181 248 082
180 249 083  180 250 084  178 249 070  176 248 057
176 249 043  175 248 037  174 248 031  174 251 024
173 253 017  172 254 008  172 255 004  171 255 000
170 243 007  169 231 015  167 219 020  167 212 023
167 206 027  170 199 030  173 191 034  177 184 036
180 180 038  182 176 039  180 166 033  178 156 026
175 147 021  173 142 019  172 137 017  167 133 011
162 128 006  155 122 002  152 119 001  149 115 000
144 118 002  138 121 005  134 123 007  132 125 008
130 127 009  124 135 006  118 143 003  113 151 002
111 154 001  108 158 000  108 169 000  107 180 000
105 193 000  104 199 000  103 205 000  100 216 000
097 228 000  092 241 000  090 248 000  088 255 000
096 254 000  103 254 000  108 254 000  111 254 000
113 255 000  117 254 000  120 255 001  124 254 001
127 255 000  129 255 000  144 250 001  160 246 003
175 241 007  183 238 008  190 236 010  204 234 007
218 232 004  232 228 002  239 227 001  246 225 000
244 223 007  242 221 015  239 219 022  238 217 025
237 215 029  234 217 033  232 218 036  227 219 038
225 220 039  223 220 040  226 208 034  229 196 028
233 183 022  236 177 019  238 170 017  243 158 012
248 147 008  251 135 004  253 130 002  255 125 000
253 125 014  252 126 029  253 126 043  253 126 050
253 126 057  254 121 074  255 115 090  255 112 105
255 110 112  255 108 119  253 117 127  252 125 135
253 134 146  253 138 151  253 143 155  254 152 159
255 161 163  255 172 167  255 177 168  255 182 170
247 178 167  239 173 165  232 167 161  228 164 159
224 160 158  211 156 156  198 152 153  184 147 150
177 144 148  170 141 146  173 141 141  176 141 137
177 142 132  177 142 130  177 143 127  176 145 125
174 147 124  170 150 123  169 152 123  167 154 123

167 154 123  169 158 117  171 162 112  173 166 106
175 169 100  176 177 094  177 185 088  180 192 082
182 195 079  184 199 076  184 204 079  185 210 082
183 216 083  182 220 084  182 224 084  185 231 084
189 238 083  194 246 082  197 250 081  199 255 081
195 254 080  190 253 079  185 249 078  183 248 078
180 247 079  181 248 080  182 248 080  181 248 082
180 249 083  180 250 084  178 249 070  176 248 057
176 249 043  175 248 037  174 248 031  174 251 024
173 253 017  172 254 008  172 255 004  171 255 000
170 243 007  169 231 015  167 219 020  167 212 023
167 206 027  170 199 030  173 191 034  177 184 036
180 180 038  182 176 039  180 166 033  178 156 026
175 147 021  173 142 019  172 137 017  167 133 011
162 128 006  155 122 002  152 119 001  149 115 000
144 118 002  138 121 005  134 123 007  132 125 008
130 127 009  124 135 006  118 143 003  113 151 002
111 154 001  108 158 000  108 169 000  107 180 000
105 193 000  104 199 000  103 205 000  100 216 000
097 228 000  092 241 000  090 248 000  088 255 000
096 254 000  103 254 000  108 254 000  111 254 000
113 255 000  117 254 000  120 255 001  124 254 001
127 255 000  129 255 000  144 250 001  160 246 003
175 241 007  183 238 008  190 236 010  204 234 007
218 232 004  232 228 002  239 227 001  246 225 000
244 223 007  242 221 015  239 219 022  238 217 025
237 215 029  234 217 033  232 218 036  227 219 038
225 220 039  223 220 040  226 208 034  229 196 028
233 183 022  236 177 019  238 170 017  243 158 012
248 147 008  251 135 004  253 130 002  255 125 000
253 125 014  252 126 029  253 126 043  253 126 050
253 126 057  254 121 074  255 115 090  255 112 105
255 110 112  255 108 119  253 117 127  252 125 135
253 134 146  253 138 151  253 143 155  254 152 159
255 161 163  255 172 167  255 177 168  255 182 170
247 178 167  239 173 165  232 167 161  228 164 159
224 160 158  211 156 156  198 152 153  184 147 150
177 144 148  170 141 146  173 141 141  176 141 137
177 142 132  177 142 130  177 143 127  176 145 125
174 147 124  170 150 123  169 152 123  167 154 123

167 154 123  169 158 117  171 162 112  173 166 106
175 169 100  176 177 094  177 185 088  180 192 082
182 195 079  184 199 076  184 204 079  185 210 082
183 216 083  182 220 084  182 224 084  185 231 084
189 238 083  194 246 082  197 250 081  199 255 081
195 254 080  190 253 079  185 249 078  183 248 078
180 247 079  181 248 080  182 248 080  181 248 082
180 249 083  180 250 084  178 249 070  176 248 057
176 249 043  175 248 037  174 248 031  174 251 024
173 253 017  172 254 008  172 255 004  171 255 000
170 243 007  169 231 015  167 219 020  167 212 023
167 206 027  170 199 030  173 191 034  177 184 036
180 180 038  182 176 039  180 166 033  178 156 026
175 147 021  173 142 019  172 137 017  167 133 011
162 128 006  155 122 002  152 119 001  149 115 000
144 118 002  138 121 005  134 123 007  132 125 008
130 127 009  124 135 006  118 143 003  113 151 002
111 154 001  108 158 000  108 169 000  107 180 000
105 193 000  104 199 000  103 205 000  100 216 000
097 228 000  092 241 000  090 248 000  088 255 000
096 254 000  103 254 000  108 254 000  111 254 000
113 255 000  117 254 000  120 255 001  124 254 001
127 255 000  129 255 000  144 250 001  160 246 003
175 241 007  183 238 008  190 236 010  204 234 007
218 232 004  232 228 002  239 227 001  246 225 000
244 223 007  242 221 015  239 219 022  238 217 025
237 215 029  234 217 033  232 218 036  227 219 038
225 220 039  223 220 040  226 208 034  229 196 028
233 183 022  236 177 019  238 170 017  243 158 012
248 147 008  251 135 004  253 130 002  255 125 000
253 125 014  252 126 029  253 126 043  253 126 050
253 126 057  254 121 074  255 115 090  255 112 105
255 110 112  255 108 119  253 117 127  252 125 135
253 134 146  253 138 151  253 143 155  254 152 159
255 161 163  255 172 167  255 177 168  255 182 170
247 178 167  239 173 165  232 167 161  228 164 159
224 160 158  211 156 156  198 152 153  184 147 150
177 144 148  170 141 146  173 141 141  176 141 137
177 142 132  177 142 130  177 143 127  176 145 125
174 147 124  170 150 123  169 152 123  167 154 123

167 154 123  169 158 117  171 162 112  173 166 106
175 169 100  176 177 094  177 185 088  180 192 082
182 195 079  184 199 076  184 204 079  185 210 082
183 216 083  182 220 084  182 224 084  185 231 084
189 238 083  194 246 082  197 250 081  199 255 081
195 254 080  190 253 079  185 249 078  183 248 078
180 247 079  181 248 080  182 248 080  181 248 082
180 249 083  180 250 084  178 249 070  176 248 057
176 249 043  175 248 037  174 248 031  174 251 024
173 253 017  172 254 008  172 255 004  171 255 000
170 243 007  169 231 015  167 219 020  167 212 023
167 206 027  170 199 030  173 191 034  177 184 036
180 180 038  182 176 039  180 166 033  178 156 026
175 147 021  173 142 019  172 137 017  167 133 011
162 128 006  155 122 002  152 119 001  149 115 000
144 118 002  138 121 005  134 123 007  132 125 008
130 127 009  124 135 006  118 143 003  113 151 002
111 154 001  108 158 000  108 169 000  107 180 000
105 193 000  104 199 000  103 205 000  100 216 000
097 228 000  092 241 000  090 248 000  088 255 000
096 254 000  103 254 000  108 254 000  111 254 000
113 255 000  117 254 000  120 255 001  124 254 001
127 255 000  129 255 000  144 250 001  160 246 003
175 241 007  183 238 008  190 236 010  204 234 007
218 232 004  232 228 002  239 227 001  246 225 000
244 223 007  242 221 015  239 219 022  238 217 025
237 215 029  234 217 033  232 218 036  227 219 038
225 220 039  223 220 040  226 208 034  229 196 028
233 183 022  236 177 019  238 170 017  243 158 012
248 147 008  251 135 004  253 130 002  255 125 000
253 125 014  252 126 029  253 126 043  253 126 050
253 126 057  254 121 074  255 115 090  255 112 105
255 110 112  255 108 119  253 117 127  252 125 135
253 134 146  253 138 151  253 143 155  254 152 159
255 161 163  255 172 167  255 177 168  255 182 170
247 178 167  239 173 165  232 167 161  228 164 159
224 160 158  211 156 156  198 152 153  184 147 150
177 144 148  170 141 146  173 141 141  176 141 137
177 142 132  177 142 130  177 143 127  176 145 125
174 147 124  170 150 123  169 152 123  167 154 123

167 154 123  169 158 117  171 162 112  173 166 106
175 169 100  176 177 094  177 185 088  180 192 082
182 195 079  184 199 076  184 204 079  185 210 082
183 216 083  182 220 084  182 224 084  185 231 084
189 238 083  194 246 082  197 250 081  199 255 081
195 254 080  190 253 079  185 249 078  183 248 078
180 247 079  181 248 080  182 248 080  181 248 082
180 249 083  180 250 084  178 249 070  176 248 057
176 249 043  175 248 037  174 248 031  174 251 024
173 253 017  172 254 008  172 255 004  171 255 000
170 243 007  169 231 015  167 219 020  167 212 023
167 206 027  170 199 030  173 191 034  177 184 036
180 180 038  182 176 039  180 166 033  178 156 026
175 147 021  173 142 019  172 137 017  167 133 011
162 128 006  155 122 002  152 119 001  149 115 000
144 118 002  138 121 005  134 123 007  132 125 008
130 127 009  124 135 006  118 143 003  113 151 002
111 154 001  108 158 000  108 169 000  107 180 000
105 193 000  104 199 000  103 205 000  100 216 000
097 228 000  092 241 000  090 248 000  088 255 000
096 254 000  103 254 000  108 254 000  111 254 000
113 255 000  117 254 000  120 255 001  124 254 001
127 255 000  129 255 000  144 250 001  160 246 003
175 241 007  183 238 008  190 236 010  204 234 007
218 232 004  232 228 002  239 227 001  246 225 000
244 223 007  242 221 015  239 219 022  238 217 025
237 215 029  234 217 033  232 218 036  227 219 038
225 220 039  223 220 040  226 208 034  229 196 028
233 183 022  236 177 019  238 170 017  243 158 012
248 147 008  251 135 004  253 130 002  255 125 000
253 125 014  252 126 029  253 126 043  253 126 050
253 126 057  254 121 074  255 115 090  255 112 105
255 110 112  255 108 119  253 117 127  252 125 135
253 134 146  253 138 151  253 143 155  254 152 159
255 161 163  255 172 167  255 177 168  255 182 170
247 178 167  239 173 165  232 167 161  228 164 159
224 160 158  211 156 156  198 152 153  184 147 150
177 144 148  170 141 146  173 141 141  176 141 137
177 142 132  177 142 130  177 143 127  176 145 125
174 147 124  170 150 123  169 152 123  167 154 123

167 154 123  169 158 117  171 162 112  173 166 106
175 169 100  176 177 094  177 185 088  180 192 082
182 195 079  184 199 076  184 204 079  185 210 082
183 216 083  182 220 084  182 224 084  185 231 084
189 238 083  194 246 082  197 250 081  199 255 081
195 254 080  190 253 079  185 249 078  183 248 078
180 247 079  181 248 080  182 248 080  181 248 082
180 249 083  180 250 084  178 249 070  176 248 057
176 249 043  175 248 037  174 248 031  174 251 024
173 253 017  172 254 008  172 255 004  171 255 000
170 243 007  169 231 015  167 219 020  167 212 023
167 206 027  170 199 030  173 191 034  177 184 036
180 180 038  182 176 039  180 166 033  178 156 026
175 147 021  173 142 019  172 137 017  167 133 011
162 128 006  155 122 002  152 119 001  149 115 000
144 118 002  138 121 005  134 123 007  132 125 008
130 127 009  124 135 006  118 143 003  113 151 002
111 154 001  108 158 000  108 169 000  107 180 000
105 193 000  104 199 000  103 205 000  100 216 000
097 228 000  092 241 000  090 248 000  088 255 000
096 254 000  103 254 000  108 254 000  111 254 000
113 255 000  117 254 000  120 255 001  124 254 001
127 255 000  129 255 000  144 250 001  160 246 003
175 241 007  183 238 008  190 236 010  204 234 007
218 232 004  232 228 002  239 227 001  246 225 000
244 223 007  242 221 015  239 219 022  238 217 025
237 215 029  234 217 033  232 218 036  227 219 038
225 220 039  223 220 040  226 208 034  229 196 028
233 183 022  236 177 019  238 170 017  243 158 012
248 147 008  251 135 004  253 130 002  255 125 000
253 125 014  252 126 029  253 126 043  253 126 050
253 126 057  254 121 074  255 115 090  255 112 105
255 110 112  255 108 119  253 117 127  252 125 135
253 134 146  253 138 151  253 143 155  254 152 159
255 161 163  255 172 167  255 177 168  255 182 170
247 178 167  239 173 165  232 167 161  228 164 159
224 160 158  211 156 156  198 152 153  184 147 150
177 144 148  170 141 146  173 141 141  176 141 137
177 142 132  177 142 130  177 143 127  176 145 125
174 147 124  170 150 123  169 152 123  167 154 123

167 154 123  169 158 117  171 162 112  173 166 106
175 169 100  176 177 094  177 185 088  180 192 082
182 195 079  184 199 076  184 204 079  185 210 082
183 216 083  182 220 084  182 224 084  185 231 084
189 238 083  194 246 082  197 250 081  199 255 081
195 254 080  190 253 079  185 249 078  183 248 078
180 247 079  181 248 080  182 248 080  181 248 082
180 249 083  180 250 084  178 249 070  176 248 057
176 249 043  175 248 037  174 248 031  174 251 024
173 253 017  172 254 008  172 255 004  171 255 000
170 243 007  169 231 015  167 219 020  167 212 023
167 206 027  170 199 030  173 191 034  177 184 036
180 180 038  182 176 039  180 166 033  178 156 026
175 147 021  173 142 019  172 137 017  167 133 011
162 128 006  155 122 002  152 119 001  149 115 000
144 118 002  138 121 005  134 123 007  132 125 008
130 127 009  124 135 006  118 143 003  113 151 002
111 154 001  108 158 000  108 169 000  107 180 000
105 193 000  104 199 000  103 205 000  100 216 000
097 228 000  092 241 000  090 248 000  088 255 000
096 254 000  103 254 000  108 254 000  111 254 000
113 255 000  117 254 000  120 255 001  124 254 001
127 255 000  129 255 000  144 250 001  160 246 003
175 241 007  183 238 008  190 236 010  204 234 007
218 232 004  232 228 002  239 227 001  246 225 000
244 223 007  242 221 015  239 219 022  238 217 025
237 215 029  234 217 033  232 218 036  227 219 038
225 220 039  223 220 040  226 208 034  229 196 028
233 183 022  236 177 019  238 170 017  243 158 012
248 147 008  251 135 004  253 130 002  255 125 000
253 125 014  252 126 029  253 126 043  253 126 050
253 126 057  254 121 074  255 115 090  255 112 105
255 110 112  255 108 119  253 117 127  252 125 135
253 134 146  253 138 151  253 143 155  254 152 159
255 161 163  255 172 167  255 177 168  255 182 170
247 178 167  239 173 165  232 167 161  228 164 159
224 160 158  211 156 156  198 152 153  184 147 150
177 144 148  170 141 146  173 141 141  176 141 137
177 142 132  177 142 130  177 143 127  176 145 125
174 147 124  170 150 123  169 152 123  167 154 123

167 154 123  169 158 117  171 162 112  173 166 106
175 169 100  176 177 094  177 185 088  180 192 082
182 195 079  184 199 076  184 204 079  185 210 082
183 216 083  182 220 084  182 224 084  185 231 084
189 238 083  194 246 082  197 250 081  199 255 081
195 254 080  190 253 079  185 249 078  183 248 078
180 247 079  181 248 080  182 248 080  181 248 082
180 249 083  180 250 084  178 249 070  176 248 057
176 249 043  175 248 037  174 248 031  174 251 024
173 253 017  172 254 008  172 255 004  171 255 000
170 243 007  169 231 015  167 219 020  167 212 023
167 206 027  170 199 030  173 191 034  177 184 036
180 180 038  182 176 039  180 166 033  178 156 026
175 147 021  173 142 019  172 137 017  167 133 011
162 128 006  155 122 002  152 119 001  149 115 000
144 118 002  138 121 005  134 123 007  132 125 008
130 127 009  124 135 006  118 143 003  113 151 002
111 154 001  108 158 000  108 169 000  107 180 000
105 193 000  104 199 000  103 205 000  100 216 000
097 228 000  092 241 000  090 248 000  088 255 000
096 254 000  103 254 000  108 254 000  111 254 000
113 255 000  117 254 000  120 255 001  124 254 001
127 255 000  129 255 000  144 250 001  160 246 003
175 241 007  183 238 008  190 236 010  204 234 007
218 232 004  232 228 002  239 227 001  246 225 000
244 223 007  242 221 015  239 219 022  238 217 025
237 215 029  234 217 033  232 218 036  227 219 038
225 220 039  223 220 040  226 208 034  229 196 028
233 183 022  236 177 019  238 170 017  243 158 012
248 147 008  251 135 004  253 130 002  255 125 000
253 125 014  252 126 029  253 126 043  253 126 050
253 126 057  254 121 074  255 115 090  255 112 105
255 110 112  255 108 119  253 117 127  252 125 135
253 134 146  253 138 151  253 143 155  254 152 159
255 161 163  255 172 167  255 177 168  255 182 170
247 178 167  239 173 165  232 167 161  228 164 159
224 160 158  211 156 156  198 152 153  184 147 150
177 144 148  170 141 146  173 141 141  176 141 137
177 142 132  177 142 130  177 143 127  176 145 125
174 147 124  170 150 123  169 152 123  167 154 123

167 154 123  169 158 117  171 162 112  173 166 106
175 169 100  176 177 094  177 185 088  180 192 082
182 195 079  184 199 076  184 204 079  185 210 082
183 216 083  182 220 084  182 224 084  185 231 084
189 238 083  194 246 082  197 250 081  199 255 081
195 254 080  190 253 079  185 249 078  183 248 078
180 247 079  181 248 080  182 248 080  181 248 082
180 249 083  180 250 084  178 249 070  176 248 057
176 249 043  175 248 037  174 248 031  174 251 024
173 253 017  172 254 008  172 255 004  171 255 000
170 243 007  169 231 015  167 219 020  167 212 023
167 206 027  170 199 030  173 191 034  177 184 036
180 180 038  182 176 039  180 166 033  178 156 026
175 147 021  173 142 019  172 137 017  167 133 011
162 128 006  155 122 002  152 119 001  149 115 000
144 118 002  138 121 005  134 123 007  132 125 008
130 127 009  124 135 006  118 143 003  113 151 002
111 154 001  108 158 000  108 169 000  107 180 000
105 193 000  104 199 000  103 205 000  100 216 000
097 228 000  092 241 000  090 248 000  088 255 000
096 254 000  103 254 000  108 254 000  111 254 000
113 255 000  117 254 000  120 255 001  124 254 001
127 255 000  129 255 000  144 250 001  160 246 003
175 241 007  183 238 008  190 236 010  204 234 007
218 232 004  232 228 002  239 227 001  246 225 000
244 223 007  242 221 015  239 219 022  238 217 025
237 215 029  234 217 033  232 218 036  227 219 038
225 220 039  223 220 040  226 208 034  229 196 028
233 183 022  236 177 019  238 170 017  243 158 012
248 147 008  251 135 004  253 130 002  255 125 000
253 125 014  252 126 029  253 126 043  253 126 050
253 126 057  254 121 074  255 115 090  255 112 105
255 110 112  255 108 119  253 117 127  252 125 135
253 134 146  253 138 151  253 143 155  254 152 159
255 161 163  255 172 167  255 177 168  255 182 170
247 178 167  239 173 165  232 167 161  228 164 159
224 160 158  211 156 156  198 152 153  184 147 150
177 144 148  170 141 146  173 141 141  176 141 137
177 142 132  177 142 130  177 143 127  176 145 125
174 147 124  170 150 123  169 152 123  167 154 123

167 154 123  169 158 117  171 162 112  173 166 106
175 169 100  176 177 094  177 185 088  180 192 082
182 195 079  184 199 076  184 204 079  185 210 082
183 216 083  182 220 084  182 224 084  185 231 084
189 238 083  194 246 082  197 250 081  199 255 081
195 254 080  190 253 079  185 249 078  183 248 078
180 247 079  181 248 080  182 248 080  181 248 082
180 249 083  180 250 084  178 249 070  176 248 057
176 249 043  175 248 037  174 248 031  174 251 024
173 253 017  172 254 008  172 255 004  171 255 000
170 243 007  169 231 015  167 219 020  167 212 023
167 206 027  170 199 030  173 191 034  177 184 036
180 180 038  182 176 039  180 166 033  178 156 026
175 147 021  173 142 019  172 137 017  167 133 011
162 128 006  155 122 002  152 119 001  149 115 000
144 118 002  138 121 005  134 123 007  132 125 008
130 127 009  124 135 006  118 143 003  113 151 002
111 154 001  108 158 000  108 169 000  107 180 000
105 193 000  104 199 000  103 205 000  100 216 000
097 228 000  092 241 000  090 248 000  088 255 000
096 254 000  103 254 000  108 254 000  111 254 000
113 255 000  117 254 000  120 255 001  124 254 001
127 255 000  129 255 000  144 250 001  160 246 003
175 241 007  183 238 008  190 236 010  204 234 007
218 232 004  232 228 002  239 227 001  246 225 000
244 223 007  242 221 015  239 219 022  238 217 025
237 215 029  234 217 033  232 218 036  227 219 038
225 220 039  223 220 040  226 208 034  229 196 028
233 183 022  236 177 019  238 170 017  243 158 012
248 147 008  251 135 004  253 130 002  255 125 000
253 125 014  252 126 029  253 126 043  253 126 050
253 126 057  254 121 074  255 115 090  255 112 105
255 110 112  255 108 119  253 117 127  252 125 135
253 134 146  253 138 151  253 143 155  254 152 159
255 161 163  255 172 167  255 177 168  255 182 170
247 178 167  239 173 165  232 167 161  228 164 159
224 160 158  211 156 156  198 152 153  184 147 150
177 144 148  170 141 146  173 141 141  176 141 137
177 142 132  177 142 130  177 143 127  176 145 125
174 147 124  170 150 123  169 152 123  167 154 123

167 154 123  169 158 117  171 162 112  173 166 106
175 169 100  176 177 094  177 185 088  180 192 082
182 195 079  184 199 076  184 204 079  185 210 082
183 216 083  182 220 084  182 224 084  185 231 084
189 238 083  194 246 082  197 250 081  199 255 081
195 254 080  190 253 079  185 249 078  183 248 078
180 247 079  181 248 080  182 248 080  181 248 082
180 249 083  180 250 084  178 249 070  176 248 057
176 249 043  175 248 037  174 248 031  174 251 024
173 253 017  172 254 008  172 255 004  171 255 000
170 243 007  169 231 015  167 219 020  167 212 023
167 206 027  170 199 030  173 191 034  177 184 036
180 180 038  182 176 039  180 166 033  178 156 026
175 147 021  173 142 019  172 137 017  167 133 011
162 128 006  155 122 002  152 119 001  149 115 000
144 118 002  138 121 005  134 123 007  132 125 008
130 127 009  124 135 006  118 143 003  113 151 002
111 154 001  108 158 000  108 169 000  107 180 000
105 193 000  104 199 000  103 205 000  100 216 000
097 228 000  092 241 000  090 248 000  088 255 000
096 254 000  103 254 000  108 254 000  111 254 000
113 255 000  117 254 000  120 255 001  124 254 001
127 255 000  129 255 000  144 250 001  160 246 003
175 241 007  183 238 008  190 236 010  204 234 007
218 232 004  232 228 002  239 227 001  246 225 000
244 223 007  242 221 015  239 219 022  238 217 025
237 215 029  234 217 033  232 218 036  227 219 038
225 220 039  223 220 040  226 208 034  229 196 028
233 183 022  236 177 019  238 170 017  243 158 012
248 147 008  251 135 004  253 130 002  255 125 000
253 125 014  252 126 029  253 126 043  253 126 050
253 126 057  254 121 074  255 115 090  255 112 105
255 110 112  255 108 119  253 117 127  252 125 135
253 134 146  253 138 151  253 143 155  254 152 159
255 161 163  255 172 167  255 177 168  255 182 170
247 178 167  239 173 165  232 167 161  228 164 159
224 160 158  211 156 156  198 152 153  184 147 150
177 144 148  170 141 146  173 141 141  176 141 137
177 142 132  177 142 130  177 143 127  176 145 125
174 147 124  170 150 123  169 152 123  167 154 123

